<?xml version="1.0" encoding="UTF-8" standalone="no"?>
<svg
   xmlns:dc="http://purl.org/dc/elements/1.1/"
   xmlns:cc="http://creativecommons.org/ns#"
   xmlns:rdf="http://www.w3.org/1999/02/22-rdf-syntax-ns#"
   xmlns:svg="http://www.w3.org/2000/svg"
   xmlns="http://www.w3.org/2000/svg"
   width="204.25253mm"
   height="44.019009mm"
   viewBox="0 0 204.25253 44.019009"
   version="1.1"
   id="svg">
  <title id="title">logo</title>
  <defs id="defs" />
  <metadata id="metadata">
    <rdf:RDF>
      <cc:Work
         rdf:about="">
        <dc:format>image/svg+xml</dc:format>
        <dc:type
           rdf:resource="http://purl.org/dc/dcmitype/StillImage" />
        <dc:title>Turrium</dc:title>
      </cc:Work>
    </rdf:RDF>
  </metadata>
  <g id="layer" transform="translate(-2.4248025,-91.832628)" style="display:inline">
    <g id="logo" transform="matrix(0.07444138,0,0,0.07444138,2.4248025,97.737651)" style="display:inline">
      <path style="fill:#3c5d78" d="M 512,256 C 512,397.385 397.385,512 256,512 114.615,512 0,397.385 0,256 0,114.615 114.615,0 256,0 397.385,0 512,114.615 512,256 Z" id="path123" />
      <path style="fill:#384e64" d="M 275,80 H 70.108 c 10.385,-10.964 21.73,-21.006 33.9,-30 H 275 c 8.284,0 15,6.716 15,15 0,8.284 -6.716,15 -15,15 z m 55,385 c 0,8.284 6.716,15 15,15 h 34.996 c 15.384,-8.534 29.8,-18.597 43.032,-30 H 345 c -8.284,0 -15,6.716 -15,15 z M 470,175 c 0,-8.284 -6.716,-15 -15,-15 h -45 c -8.284,0 -15,-6.716 -15,-15 0,-8.284 6.716,-15 15,-15 h 68.88 c -5.939,-10.484 -12.599,-20.504 -19.909,-30 H 255 c -8.284,0 -15,6.716 -15,15 0,8.284 6.716,15 15,15 h 75 c 8.284,0 15,6.716 15,15 0,8.284 -6.715,15 -14.999,15 H 205 c -8.284,0 -15,6.716 -15,15 0,8.284 6.716,15 15,15 h 250 c 8.284,0 15,-6.716 15,-15 z m 41.924,75 h -226.5 c -8.077,0 -15.027,6.207 -15.407,14.274 C 269.611,272.889 276.475,280 285,280 h 120 c 8.284,0 15,6.716 15,15 0,8.284 6.716,15 15,15 h 71.275 c 3.739,-17.411 5.725,-35.472 5.725,-54 0,-2.006 -0.03,-4.005 -0.076,-6 z" id="path125" />
      <path style="fill:#40718c" d="m 283.511,27.528 6.423,11.744 c 0.184,0.336 0.459,0.611 0.795,0.795 l 11.744,6.423 c 1.387,0.759 1.387,2.751 0,3.509 l -11.744,6.423 c -0.336,0.184 -0.612,0.459 -0.795,0.795 l -6.423,11.744 c -0.759,1.387 -2.751,1.387 -3.509,0 l -6.423,-11.744 c -0.184,-0.336 -0.459,-0.611 -0.795,-0.795 L 261.04,49.999 c -1.387,-0.759 -1.387,-2.751 0,-3.509 l 11.744,-6.423 c 0.336,-0.184 0.612,-0.459 0.795,-0.795 l 6.423,-11.744 c 0.758,-1.388 2.75,-1.388 3.509,0 z" id="path127" />
      <path style="fill:#fff4a5" d="m 281.04,190.001 11.744,-6.422 c 0.335,-0.184 0.611,-0.459 0.795,-0.795 l 6.423,-11.744 c 0.759,-1.387 2.751,-1.387 3.509,0 l 6.423,11.744 c 0.184,0.336 0.459,0.612 0.795,0.795 l 11.744,6.422 c 1.387,0.759 1.387,2.751 0,3.51 l -11.744,6.423 c -0.336,0.183 -0.611,0.459 -0.795,0.795 l -6.423,11.744 c -0.759,1.387 -2.751,1.387 -3.509,0 l -6.423,-11.744 c -0.183,-0.335 -0.459,-0.612 -0.795,-0.795 l -11.744,-6.423 c -1.387,-0.759 -1.387,-2.751 0,-3.51 z M 201.593,70 C 123.394,92.522 66.19,164.602 66.19,250.048 66.19,353.52 150.07,437.4 253.542,437.4 320.1,437.4 378.546,402.689 411.78,350.385 292.054,312.312 204.718,201.587 201.593,70 Z" id="path129" />
      <path style="fill:#ffe473" d="m 140,275 c 0,-13.807 11.193,-25 25,-25 13.807,0 25,11.193 25,25 0,13.807 -11.193,25 -25,25 -13.807,0 -25,-11.193 -25,-25 z m 100,45 c 11.046,0 20,-8.954 20,-20 0,-11.046 -8.954,-20 -20,-20 -11.046,0 -20,8.954 -20,20 0,11.046 8.954,20 20,20 z M 160,190 c 11.046,0 20,-8.954 20,-20 0,-11.046 -8.954,-20 -20,-20 -11.046,0 -20,8.954 -20,20 0,11.046 8.954,20 20,20 z m 288.96,-59.999 -11.744,-6.422 c -0.335,-0.184 -0.611,-0.459 -0.795,-0.795 l -6.423,-11.744 c -0.759,-1.387 -2.751,-1.387 -3.509,0 l -6.423,11.744 c -0.184,0.336 -0.459,0.612 -0.795,0.795 l -11.744,6.422 c -1.387,0.759 -1.387,2.751 0,3.51 l 11.744,6.422 c 0.336,0.184 0.611,0.46 0.795,0.795 l 6.423,11.744 c 0.759,1.387 2.751,1.387 3.509,0 l 6.423,-11.744 c 0.183,-0.335 0.459,-0.612 0.795,-0.795 l 11.744,-6.422 c 1.387,-0.759 1.387,-2.751 0,-3.51 z M 360,380 c 0,-16.568 -13.431,-30 -30,-30 -16.569,0 -30,13.432 -30,30 0,12.449 7.583,23.125 18.381,27.666 -12.653,2.699 -25.775,4.13 -39.234,4.13 -103.471,0 -187.352,-83.88 -187.352,-187.352 0,-45.205 16.014,-86.666 42.674,-119.029 -41.692,34.36 -68.279,86.389 -68.279,144.634 0,103.472 83.88,187.352 187.352,187.352 58.281,0 110.341,-26.616 144.701,-68.353 -12.853,10.599 -27.146,19.513 -42.535,26.417 C 358.432,390.949 360,385.658 360,380 Z" id="path131" />
      <path style="fill:#6599aa" d="m 431.04,256.489 11.744,-6.423 c 0.335,-0.183 0.611,-0.459 0.795,-0.795 l 6.423,-11.744 c 0.759,-1.387 2.751,-1.387 3.509,0 l 6.423,11.744 c 0.184,0.335 0.459,0.612 0.795,0.795 l 11.744,6.423 c 1.387,0.759 1.387,2.751 0,3.509 l -11.744,6.423 c -0.336,0.184 -0.611,0.459 -0.795,0.795 l -6.423,11.743 c -0.759,1.387 -2.751,1.387 -3.509,0 l -6.423,-11.743 c -0.183,-0.336 -0.459,-0.612 -0.795,-0.795 l -11.744,-6.423 c -1.387,-0.758 -1.387,-2.75 0,-3.509 z M 470,370 H 59.998 C 51.714,369.999 45,363.283 45,355 c 0,-8.284 6.716,-15 15,-15 h 155 c 8.284,0 15,-6.716 15,-15 0,-8.284 -6.716,-15 -15,-15 H 5.725 c 7.037,32.768 20.335,63.208 38.597,90 H 130 c 8.284,0 15,6.716 15,15 0,8.284 -6.715,15 -14.999,15 H 68.246 c 10.134,10.929 21.207,20.973 33.096,30 H 255 c 8.284,0 15,-6.716 15,-15 0,-8.284 -6.716,-15 -15,-15 h -45 c -8.284,0 -15,-6.716 -15,-15 0,-8.284 6.716,-15 15,-15 h 260 c 8.284,0 15,-6.716 15,-15 0,-8.284 -6.716,-15 -15,-15 z" id="path133" />
    </g>
    <g id="star">
      <path style="fill:#ffe473;fill-opacity:1;stroke:#384e64;stroke-width:1.677;stroke-linecap:round;stroke-linejoin:round;stroke-miterlimit:4;stroke-dasharray:none;stroke-opacity:1;paint-order:normal" id="path1094" d="m 152.25037,98.669554 -3.96069,3.047686 0.26523,4.9905 -4.12244,-2.82506 -4.66429,1.7944 1.41289,-4.79366 -3.14792,-3.881507 4.99565,-0.13759 2.71877,-4.193299 1.67459,4.708629 z" />
      <ellipse style="fill:#384e64;fill-opacity:1;stroke:none;stroke-width:0.772923;stroke-linecap:round;stroke-linejoin:round;stroke-miterlimit:4;stroke-dasharray:none;stroke-opacity:1;paint-order:normal" id="path1100" cx="143.89124" cy="99.023361" rx="0.28499693" ry="0.58567518" />
      <ellipse style="fill:#384e64;fill-opacity:1;stroke:none;stroke-width:0.772923;stroke-linecap:round;stroke-linejoin:round;stroke-miterlimit:4;stroke-dasharray:none;stroke-opacity:1;paint-order:normal" id="path1100-4" cx="146.06279" cy="99.156998" rx="0.28499693" ry="0.58567518" />
      <path style="fill:none;stroke:#384e64;stroke-width:0.264583px;stroke-linecap:butt;stroke-linejoin:miter;stroke-opacity:1" d="m 143.25646,100.69379 c 0.97999,0.98501 1.95998,0.81133 2.93997,0.20046" id="path1136" />
    </g>
    <g id="title">
      <text xml:space="preserve" style="font-style:normal;font-weight:normal;font-size:29.4817px;line-height:1.25;font-family:sans-serif;display:inline;fill:#ffe473;fill-opacity:1;stroke:#384e64;stroke-width:2.052;stroke-linecap:round;stroke-linejoin:round;stroke-miterlimit:4;stroke-dasharray:none;stroke-opacity:1;paint-order:normal" x="39.893799" y="127.98846" id="text12"><tspan id="tspan10" x="39.893799" y="127.98846" style="font-style:normal;font-variant:normal;font-weight:bold;font-stretch:normal;font-size:31.4471px;font-family:sans-serif;-inkscape-font-specification:'sans-serif, Bold';font-variant-ligatures:normal;font-variant-caps:normal;font-variant-numeric:normal;font-variant-east-asian:normal;fill:#ffe473;fill-opacity:1;stroke:#384e64;stroke-width:2.052;stroke-linecap:round;stroke-linejoin:round;stroke-miterlimit:4;stroke-dasharray:none;stroke-opacity:1;paint-order:normal">TURRIUM</tspan></text>
    </g>
  </g>
</svg>